PathFileType	4	(X/Y/Z)	./resultDataOpenSim/trcMotMarkerGrf/sub09/qtm-12-03.trc
DataRate	CameraRate	NumFrames	NumMarkers	Units	OrigDataRate	OrigDataStartFrame	OrigNumFrames
250.000000	250.000000	11	24	m	250.000000	175	466
Frame#	Time	L.Toe.Tip			R.Toe.Tip			L.Ankle.Lat			R.Ankle.Lat			L.Ankle.Med			R.Ankle.Med			L.Heel			R.Heel			L.Knee.Lat			R.Knee.Lat			L.Knee.Med			R.Knee.Med			L.Thigh.Upper			R.Thigh.Upper			L.ASIS			R.ASIS			V.Sacral			L.Acromium			R.Acromium			C7			L.Elbow			R.Elbow			L.Wrist.Lat			R.Wrist.Lat
		X1	Y1	Z1	X2	Y2	Z2	X3	Y3	Z3	X4	Y4	Z4	X5	Y5	Z5	X6	Y6	Z6	X7	Y7	Z7	X8	Y8	Z8	X9	Y9	Z9	X10	Y10	Z10	X11	Y11	Z11	X12	Y12	Z12	X13	Y13	Z13	X14	Y14	Z14	X15	Y15	Z15	X16	Y16	Z16	X17	Y17	Z17	X18	Y18	Z18	X19	Y19	Z19	X20	Y20	Z20	X21	Y21	Z21	X22	Y22	Z22	X23	Y23	Z23	X24	Y24	Z24

175	0.696	0.20900944	0.016105318	-0.027396832	-0.51883232	0.075718404	0.080961614	0.061664931	0.046053791	-0.071935911	-0.55560187	0.22511053	0.12097562	0.077909513	0.069123838	0.023509504	-0.50572164	0.22409635	0.036501923	-0.011630165	0.012043914	-0.028533912	-0.59474657	0.27366263	0.065314137	0.097681925	0.45429649	-0.13517578	-0.15464275	0.43102854	0.17799088	0.098672516	0.46063891	-0.011137887	-0.14797827	0.40491373	0.052132123	-0.09319568	0.82629358	-0.1843541	-0.15634847	0.83008412	0.18589601	-0.0321494	0.91853368	-0.11659208	-0.050208557	0.91623671	0.12414397	-0.20845903	0.96680315	-0.014557343	-0.047736923	1.361265	-0.18148815	-0.073175819	1.3855556	0.1489221	-0.12245027	1.4254704	-0.020002316	-0.22998011	1.0463775	-0.24372179	-0.22906165	1.0620159	0.24596395	-0.13579661	0.79821601	-0.26664969	-0.10223261	0.8219854	0.28740063
176	0.7	0.20895003	0.016100967	-0.027381008	-0.50769213	0.080062851	0.082135998	0.061629327	0.046036391	-0.072018458	-0.5426171	0.23030953	0.12140767	0.077981126	0.069132685	0.023461226	-0.49268828	0.22888983	0.036938865	-0.011712927	0.012047632	-0.028593186	-0.58105869	0.27925995	0.065788015	0.10066785	0.45416206	-0.13516862	-0.14004076	0.43154991	0.17793545	0.10059983	0.46048238	-0.0110584	-0.13475457	0.40618182	0.052235614	-0.087432399	0.82771177	-0.1849336	-0.14981648	0.83079028	0.18534564	-0.026190072	0.91974249	-0.11698241	-0.04469709	0.91755259	0.12391723	-0.20345606	0.96777296	-0.015186894	-0.039791571	1.3622874	-0.18157241	-0.0663921	1.3868668	0.14868915	-0.11524347	1.426926	-0.020431584	-0.22189361	1.0473907	-0.24480747	-0.22356375	1.0640669	0.24594374	-0.12674622	0.79934833	-0.26647062	-0.098742104	0.82303139	0.28734595
177	0.704	0.20886055	0.016115484	-0.027355909	-0.495123	0.08466072	0.083309453	0.061575698	0.046038303	-0.072132468	-0.5293617	0.23552968	0.12177532	0.078006908	0.069157848	0.023397826	-0.47964148	0.23393267	0.037172515	-0.011822225	0.012031155	-0.028666465	-0.56774054	0.28420621	0.066020282	0.10353767	0.45408018	-0.13511735	-0.12537426	0.43234752	0.17790256	0.1027553	0.46036639	-0.010814635	-0.12148216	0.40771899	0.052201468	-0.081742683	0.82925981	-0.18555879	-0.14343961	0.83165893	0.18482103	-0.020237534	0.92102551	-0.11732783	-0.039204553	0.91894847	0.12369374	-0.1983713	0.96889551	-0.015854896	-0.031845187	1.3633721	-0.18159658	-0.059675013	1.3882581	0.14848265	-0.10793698	1.4283978	-0.021057815	-0.21382954	1.0484713	-0.24593573	-0.21826482	1.0662127	0.24601008	-0.11768531	0.80058492	-0.26626771	-0.09524067	0.82419895	0.28724845
178	0.708	0.20875375	0.016148798	-0.027337364	-0.48125766	0.089500591	0.084448577	0.061528723	0.046041025	-0.072258547	-0.51581419	0.24068529	0.12209802	0.078013686	0.069193995	0.023318995	-0.46653722	0.23907126	0.037286691	-0.011941425	0.01200254	-0.028745159	-0.55469127	0.28867452	0.066080626	0.10619685	0.45406632	-0.13512095	-0.11073637	0.43353628	0.17777741	0.10507442	0.46025176	-0.010503765	-0.10807419	0.40946582	0.05192848	-0.076116259	0.83090774	-0.18621598	-0.13715962	0.83269268	0.18430819	-0.014284669	0.9223924	-0.11763546	-0.033702772	0.92042115	0.12345424	-0.1929609	0.97033389	-0.016494265	-0.023922681	1.3645178	-0.18156177	-0.053049385	1.3897186	0.14830177	-0.10060073	1.429877	-0.021777937	-0.20579515	1.0496133	-0.24709981	-0.21328106	1.0684699	0.24620415	-0.10863034	0.80192537	-0.26603584	-0.091747178	0.82548842	0.28712445
179	0.712	0.20863928	0.016197337	-0.02733983	-0.46624431	0.094543467	0.085541326	0.061493534	0.04603549	-0.072384884	-0.50197095	0.24564199	0.1223887	0.078023171	0.069237307	0.023222994	-0.4532312	0.24409376	0.037346679	-0.012057568	0.011965769	-0.028821345	-0.54163748	0.29282502	0.06614421	0.10861195	0.45411805	-0.13521661	-0.096246623	0.43512864	0.17751645	0.10732439	0.46010195	-0.010275792	-0.09448825	0.41141276	0.051481678	-0.070599382	0.83262836	-0.18687122	-0.13088166	0.83388429	0.1837888	-0.008373275	0.92384725	-0.11793174	-0.028198484	0.9219717	0.12318771	-0.1872958	0.97201349	-0.017079051	-0.016047862	1.3657194	-0.18148223	-0.046506993	1.3912388	0.148143	-0.093430227	1.4313928	-0.022324206	-0.19780586	1.0508221	-0.24828033	-0.20857218	1.0708115	0.24645836	-0.099591592	0.80336621	-0.2657808	-0.088304727	0.82688709	0.28699441
180	0.716	0.20852197	0.016255405	-0.027367315	-0.45034076	0.099635688	0.08658548	0.061469409	0.046025832	-0.072512123	-0.48783492	0.25027416	0.12266364	0.078044173	0.06928736	0.023105433	-0.43962794	0.24879727	0.037407426	-0.012164051	0.011921638	-0.02889048	-0.5283404	0.2967114	0.066394769	0.11080591	0.45421361	-0.1353777	-0.081950192	0.43702623	0.17717431	0.10935173	0.45991712	-0.01020628	-0.08068855	0.4135481	0.050971019	-0.065250082	0.83440562	-0.18749276	-0.1245532	0.83521443	0.18325363	-0.0025414693	0.92539131	-0.11823781	-0.022699497	0.92359976	0.12288988	-0.18151873	0.97381013	-0.017591665	-0.0082294139	1.3669691	-0.18137042	-0.040027134	1.3928086	0.14801027	-0.086504775	1.4329821	-0.022617116	-0.18986884	1.0521002	-0.24946208	-0.20390739	1.0731767	0.24661087	-0.090574659	0.80489838	-0.26551624	-0.084934438	0.82838319	0.2868734
181	0.72	0.20840374	0.016317221	-0.027416084	-0.43390964	0.10454019	0.087565029	0.061453957	0.046019475	-0.072649124	-0.47339136	0.25451397	0.1229453	0.078073179	0.069345899	0.022959555	-0.42572713	0.25306146	0.037498094	-0.012260602	0.011872942	-0.028954829	-0.51474499	0.30027637	0.066900435	0.11280107	0.45432481	-0.13557318	-0.067704515	0.43912348	0.17682028	0.1111514	0.45972788	-0.010283416	-0.066751203	0.4158509	0.050446431	-0.060078587	0.83623487	-0.18806459	-0.11820358	0.83665882	0.18271754	0.0032156746	0.92702436	-0.11856073	-0.017199339	0.92530194	0.12255872	-0.17572261	0.97565943	-0.018020539	-0.00046965546	1.3682635	-0.18123155	-0.033605737	1.3944207	0.14790824	-0.079727847	1.4346602	-0.022827349	-0.18198048	1.0534417	-0.25064152	-0.19906533	1.0755319	0.2465634	-0.081590375	0.80651239	-0.26525721	-0.081628358	0.82997705	0.28676635
182	0.724	0.20828341	0.016379407	-0.027483494	-0.41726785	0.10906325	0.08845383	0.061443342	0.046019825	-0.072805392	-0.4586217	0.25833195	0.12325983	0.078098814	0.06941677	0.022780666	-0.41157742	0.25688197	0.037609038	-0.012352367	0.011825913	-0.029023084	-0.50094624	0.30343083	0.067587067	0.11461292	0.45442193	-0.13578282	-0.053233445	0.44139656	0.17647322	0.11273656	0.45956043	-0.010484856	-0.052852798	0.41833088	0.049888851	-0.055002177	0.83812555	-0.18859166	-0.11188812	0.83820264	0.18220826	0.0089385339	0.92874313	-0.11890352	-0.011689868	0.92707406	0.12218898	-0.1699574	0.97755648	-0.018373811	0.0072265838	1.3696068	-0.18106867	-0.027250418	1.3960739	0.14782916	-0.072976806	1.436415	-0.023106039	-0.17413631	1.0548358	-0.25182156	-0.19400087	1.0778898	0.24634318	-0.072652211	0.80820168	-0.26502279	-0.078370026	0.83167603	0.28667065
183	0.728	0.20815571	0.016442098	-0.027570591	-0.40058109	0.11313058	0.08923948	0.061433219	0.046026799	-0.072981579	-0.44357509	0.26165671	0.12362448	0.078106458	0.069504545	0.0225707	-0.39722536	0.260336	0.037705831	-0.012447402	0.011787191	-0.029104606	-0.48704648	0.30613746	0.068313696	0.11627195	0.45448104	-0.13598494	-0.038455562	0.44391941	0.17611161	0.11409283	0.45943127	-0.010801471	-0.039070583	0.42102601	0.04926978	-0.049888141	0.84009528	-0.18909691	-0.10560607	0.83984352	0.1817366	0.014663126	0.93053868	-0.11926872	-0.0061729838	0.92891266	0.12177375	-0.16423168	0.97951955	-0.018696452	0.014852821	1.3710046	-0.18088594	-0.020960005	1.3977671	0.14776011	-0.066191863	1.4382129	-0.023451841	-0.16633585	1.0562695	-0.25300412	-0.18880507	1.0802733	0.2460146	-0.063770644	0.80995781	-0.26482839	-0.075133914	0.83347094	0.28657886
184	0.732	0.20801442	0.016507478	-0.027676219	-0.38388637	0.11675351	0.089941383	0.0614175	0.046039397	-0.073167081	-0.42840726	0.26435933	0.12403187	0.078083356	0.069610989	0.02233861	-0.38270013	0.26350193	0.037770533	-0.012552906	0.011761481	-0.029203121	-0.4730621	0.30841805	0.068978416	0.11782786	0.45449173	-0.13616658	-0.02383125	0.44681776	0.1757031	0.11524852	0.45935539	-0.011204895	-0.025265844	0.42393452	0.048601921	-0.044678611	0.84214729	-0.18960504	-0.099302097	0.84157903	0.18129048	0.020397612	0.93239449	-0.1196543	-0.00065585294	0.93081527	0.12131241	-0.15851359	0.98154766	-0.019071424	0.022405313	1.3724567	-0.1806884	-0.014723282	1.3994929	0.14769562	-0.059371793	1.4400218	-0.023799861	-0.15857948	1.057731	-0.25418298	-0.18360253	1.0826896	0.24561602	-0.054939091	0.81176539	-0.26466379	-0.071894908	0.83533104	0.28648511
185	0.736	0.20785765	0.016576566	-0.027792814	-0.36715946	0.11995761	0.090603701	0.061388738	0.046056364	-0.073347778	-0.41330445	0.26636937	0.12446383	0.078025561	0.069731749	0.022098391	-0.3680258	0.26638675	0.037831996	-0.012671046	0.011749882	-0.029312983	-0.45896081	0.31030727	0.069549868	0.11932667	0.4544544	-0.13633135	-0.010123671	0.45016032	0.17522268	0.11634273	0.45933915	-0.011615065	-0.011240762	0.42700128	0.047937546	-0.039440101	0.84425895	-0.19012271	-0.092935376	0.84339674	0.18085719	0.026133162	0.93428612	-0.12005536	0.0048607479	0.93277994	0.12081351	-0.15276137	0.98359876	-0.01956325	0.029882718	1.3739568	-0.1804783	-0.0085278734	1.401238	0.14763785	-0.052549476	1.4418283	-0.02411231	-0.15086506	1.0592096	-0.25534227	-0.17849287	1.0851335	0.24516632	-0.046112662	0.81360658	-0.26448619	-0.068653893	0.83723348	0.28639315
